<mxfile host="65bd71144e">
    <diagram id="5pztzC0Lj-4fYWEeBve5" name="Page-1">
        <mxGraphModel dx="605" dy="1373" grid="1" gridSize="10" guides="1" tooltips="1" connect="1" arrows="1" fold="1" page="1" pageScale="1" pageWidth="850" pageHeight="1100" math="0" shadow="0">
            <root>
                <mxCell id="0"/>
                <mxCell id="1" parent="0"/>
                <mxCell id="4" value="" style="edgeStyle=none;html=1;fontColor=#2130FF;" edge="1" parent="1" source="2" target="3">
                    <mxGeometry relative="1" as="geometry"/>
                </mxCell>
                <mxCell id="2" value="AIM:&lt;br&gt;A machine learning app Helping to select the best model based on regression or classification&amp;nbsp;&lt;br&gt;Fine tuning the model&amp;nbsp;" style="whiteSpace=wrap;html=1;strokeColor=#55F01D;" vertex="1" parent="1">
                    <mxGeometry x="70" y="-260" width="200" height="70" as="geometry"/>
                </mxCell>
                <mxCell id="6" value="" style="edgeStyle=none;html=1;fontColor=#2130FF;" edge="1" parent="1" source="3" target="5">
                    <mxGeometry relative="1" as="geometry"/>
                </mxCell>
                <mxCell id="3" value="Load the data&amp;nbsp;" style="ellipse;whiteSpace=wrap;html=1;strokeColor=#55F01D;" vertex="1" parent="1">
                    <mxGeometry x="110" y="-115" width="120" height="80" as="geometry"/>
                </mxCell>
                <mxCell id="8" value="" style="edgeStyle=none;html=1;fontColor=#2130FF;" edge="1" parent="1" source="5" target="7">
                    <mxGeometry relative="1" as="geometry"/>
                </mxCell>
                <mxCell id="5" value="Example Data Button" style="whiteSpace=wrap;html=1;strokeColor=#55F01D;" vertex="1" parent="1">
                    <mxGeometry x="110" y="55" width="120" height="60" as="geometry"/>
                </mxCell>
                <mxCell id="10" value="" style="edgeStyle=none;html=1;fontColor=#2130FF;" edge="1" parent="1" source="7" target="9">
                    <mxGeometry relative="1" as="geometry"/>
                </mxCell>
                <mxCell id="7" value="Check the column names and data types" style="whiteSpace=wrap;html=1;strokeColor=#55F01D;" vertex="1" parent="1">
                    <mxGeometry x="80" y="195" width="180" height="60" as="geometry"/>
                </mxCell>
                <mxCell id="12" value="" style="edgeStyle=none;html=1;fontColor=#2130FF;" edge="1" parent="1" source="9" target="11">
                    <mxGeometry relative="1" as="geometry"/>
                </mxCell>
                <mxCell id="9" value="Asking for the Features and Targets" style="whiteSpace=wrap;html=1;strokeColor=#55F01D;" vertex="1" parent="1">
                    <mxGeometry x="80" y="335" width="180" height="60" as="geometry"/>
                </mxCell>
                <mxCell id="15" value="" style="edgeStyle=none;html=1;fontColor=#2130FF;" edge="1" parent="1" source="11" target="14">
                    <mxGeometry relative="1" as="geometry"/>
                </mxCell>
                <mxCell id="11" value="Preprocessing&amp;nbsp;&lt;br&gt;-Null Values imputation&lt;br&gt;-Feature Encoding&lt;br&gt;-Inverse Transform&lt;br&gt;-Feature Selection" style="whiteSpace=wrap;html=1;strokeColor=#55F01D;" vertex="1" parent="1">
                    <mxGeometry x="60" y="550" width="220" height="85" as="geometry"/>
                </mxCell>
                <mxCell id="13" value="&lt;font style=&quot;background-color: rgb(26, 26, 26);&quot; color=&quot;#ffffff&quot;&gt;Asking for the Featues andTargets we have to find if the problem is of Regression or classification&amp;nbsp;&lt;/font&gt;" style="whiteSpace=wrap;html=1;strokeColor=#55F01D;labelBackgroundColor=#FFFFFF;fontColor=#2130FF;fillColor=#66FF66;" vertex="1" parent="1">
                    <mxGeometry x="80" y="440" width="180" height="60" as="geometry"/>
                </mxCell>
                <mxCell id="17" value="" style="edgeStyle=none;html=1;fontColor=#2130FF;" edge="1" parent="1" source="14" target="16">
                    <mxGeometry relative="1" as="geometry"/>
                </mxCell>
                <mxCell id="14" value="Select the model from all regression or classifier models (This is based on the Point of Selecting target variable&amp;nbsp;" style="whiteSpace=wrap;html=1;strokeColor=#55F01D;" vertex="1" parent="1">
                    <mxGeometry x="60" y="727.5" width="220" height="72.5" as="geometry"/>
                </mxCell>
                <mxCell id="19" value="" style="edgeStyle=none;html=1;fontColor=#2130FF;" edge="1" parent="1" source="16" target="18">
                    <mxGeometry relative="1" as="geometry"/>
                </mxCell>
                <mxCell id="16" value="Add the evaluation metrics based on the problem&amp;nbsp;" style="whiteSpace=wrap;html=1;strokeColor=#55F01D;" vertex="1" parent="1">
                    <mxGeometry x="90" y="886.25" width="160" height="60" as="geometry"/>
                </mxCell>
                <mxCell id="21" value="" style="edgeStyle=none;html=1;fontColor=#2130FF;" edge="1" parent="1" source="18" target="20">
                    <mxGeometry relative="1" as="geometry"/>
                </mxCell>
                <mxCell id="18" value="Print the evaluation metrics and select the best possible model with multiple hyperparameters&amp;nbsp;" style="whiteSpace=wrap;html=1;strokeColor=#55F01D;" vertex="1" parent="1">
                    <mxGeometry x="60" y="1026.25" width="220" height="60" as="geometry"/>
                </mxCell>
                <mxCell id="20" value="Ask the user for input data based on sliders and predict the output of target variable with respect to metrics&amp;nbsp;" style="whiteSpace=wrap;html=1;strokeColor=#55F01D;" vertex="1" parent="1">
                    <mxGeometry x="60" y="1166.25" width="220" height="60" as="geometry"/>
                </mxCell>
            </root>
        </mxGraphModel>
    </diagram>
</mxfile>